<svg width="215" height="62" viewBox="0 0 215 62" fill="none" xmlns="http://www.w3.org/2000/svg">
<rect width="215" height="62" fill="#046153"/>
<path d="M52.982 40H49.202L40.643 27.067V40H36.863V21.127H40.643L49.202 34.087V21.127H52.982V40ZM62.5495 40.243C61.1095 40.243 59.8135 39.928 58.6615 39.298C57.5095 38.65 56.6005 37.741 55.9345 36.571C55.2865 35.401 54.9625 34.051 54.9625 32.521C54.9625 30.991 55.2955 29.641 55.9615 28.471C56.6455 27.301 57.5725 26.401 58.7425 25.771C59.9125 25.123 61.2175 24.799 62.6575 24.799C64.0975 24.799 65.4025 25.123 66.5725 25.771C67.7425 26.401 68.6605 27.301 69.3265 28.471C70.0105 29.641 70.3525 30.991 70.3525 32.521C70.3525 34.051 70.0015 35.401 69.2995 36.571C68.6155 37.741 67.6795 38.65 66.4915 39.298C65.3215 39.928 64.0075 40.243 62.5495 40.243ZM62.5495 36.949C63.2335 36.949 63.8725 36.787 64.4665 36.463C65.0785 36.121 65.5645 35.617 65.9245 34.951C66.2845 34.285 66.4645 33.475 66.4645 32.521C66.4645 31.099 66.0865 30.01 65.3305 29.254C64.5925 28.48 63.6835 28.093 62.6035 28.093C61.5235 28.093 60.6145 28.48 59.8765 29.254C59.1565 30.01 58.7965 31.099 58.7965 32.521C58.7965 33.943 59.1475 35.041 59.8495 35.815C60.5695 36.571 61.4695 36.949 62.5495 36.949ZM93.0513 25.042L88.6773 40H84.6003L81.8733 29.551L79.1463 40H75.0423L70.6413 25.042H74.4753L77.1213 36.436L79.9833 25.042H83.9793L86.7873 36.409L89.4333 25.042H93.0513ZM100.929 40.243C99.4885 40.243 98.1925 39.928 97.0405 39.298C95.8885 38.65 94.9795 37.741 94.3135 36.571C93.6655 35.401 93.3415 34.051 93.3415 32.521C93.3415 30.991 93.6745 29.641 94.3405 28.471C95.0245 27.301 95.9515 26.401 97.1215 25.771C98.2915 25.123 99.5965 24.799 101.037 24.799C102.477 24.799 103.782 25.123 104.952 25.771C106.122 26.401 107.04 27.301 107.706 28.471C108.39 29.641 108.732 30.991 108.732 32.521C108.732 34.051 108.381 35.401 107.679 36.571C106.995 37.741 106.059 38.65 104.871 39.298C103.701 39.928 102.387 40.243 100.929 40.243ZM100.929 36.949C101.613 36.949 102.252 36.787 102.846 36.463C103.458 36.121 103.944 35.617 104.304 34.951C104.664 34.285 104.844 33.475 104.844 32.521C104.844 31.099 104.466 30.01 103.71 29.254C102.972 28.48 102.063 28.093 100.983 28.093C99.9025 28.093 98.9935 28.48 98.2555 29.254C97.5355 30.01 97.1755 31.099 97.1755 32.521C97.1755 33.943 97.5265 35.041 98.2285 35.815C98.9485 36.571 99.8485 36.949 100.929 36.949ZM116.418 40.243C115.194 40.243 114.096 40.027 113.124 39.595C112.152 39.145 111.378 38.542 110.802 37.786C110.244 37.03 109.938 36.193 109.884 35.275H113.691C113.763 35.851 114.042 36.328 114.528 36.706C115.032 37.084 115.653 37.273 116.391 37.273C117.111 37.273 117.669 37.129 118.065 36.841C118.479 36.553 118.686 36.184 118.686 35.734C118.686 35.248 118.434 34.888 117.93 34.654C117.444 34.402 116.661 34.132 115.581 33.844C114.465 33.574 113.547 33.295 112.827 33.007C112.125 32.719 111.513 32.278 110.991 31.684C110.487 31.09 110.235 30.289 110.235 29.281C110.235 28.453 110.469 27.697 110.937 27.013C111.423 26.329 112.107 25.789 112.989 25.393C113.889 24.997 114.942 24.799 116.148 24.799C117.93 24.799 119.352 25.249 120.414 26.149C121.476 27.031 122.061 28.228 122.169 29.74H118.551C118.497 29.146 118.245 28.678 117.795 28.336C117.363 27.976 116.778 27.796 116.04 27.796C115.356 27.796 114.825 27.922 114.447 28.174C114.087 28.426 113.907 28.777 113.907 29.227C113.907 29.731 114.159 30.118 114.663 30.388C115.167 30.64 115.95 30.901 117.012 31.171C118.092 31.441 118.983 31.72 119.685 32.008C120.387 32.296 120.99 32.746 121.494 33.358C122.016 33.952 122.286 34.744 122.304 35.734C122.304 36.598 122.061 37.372 121.575 38.056C121.107 38.74 120.423 39.28 119.523 39.676C118.641 40.054 117.606 40.243 116.418 40.243ZM119.199 20.965L112.989 23.8V21.1L119.199 17.887V20.965ZM123.625 32.521C123.625 30.973 123.94 29.623 124.57 28.471C125.2 27.301 126.073 26.401 127.189 25.771C128.305 25.123 129.583 24.799 131.023 24.799C132.877 24.799 134.407 25.267 135.613 26.203C136.837 27.121 137.656 28.417 138.07 30.091H133.993C133.777 29.443 133.408 28.939 132.886 28.579C132.382 28.201 131.752 28.012 130.996 28.012C129.916 28.012 129.061 28.408 128.431 29.2C127.801 29.974 127.486 31.081 127.486 32.521C127.486 33.943 127.801 35.05 128.431 35.842C129.061 36.616 129.916 37.003 130.996 37.003C132.526 37.003 133.525 36.319 133.993 34.951H138.07C137.656 36.571 136.837 37.858 135.613 38.812C134.389 39.766 132.859 40.243 131.023 40.243C129.583 40.243 128.305 39.928 127.189 39.298C126.073 38.65 125.2 37.75 124.57 36.598C123.94 35.428 123.625 34.069 123.625 32.521ZM141.946 23.26C141.28 23.26 140.722 23.053 140.272 22.639C139.84 22.207 139.624 21.676 139.624 21.046C139.624 20.416 139.84 19.894 140.272 19.48C140.722 19.048 141.28 18.832 141.946 18.832C142.612 18.832 143.161 19.048 143.593 19.48C144.043 19.894 144.268 20.416 144.268 21.046C144.268 21.676 144.043 22.207 143.593 22.639C143.161 23.053 142.612 23.26 141.946 23.26ZM143.809 25.042V40H140.029V25.042H143.809Z" fill="white"/>
<path d="M165 37L171 31L165 25" stroke="white" stroke-width="2" stroke-linecap="square" stroke-linejoin="round"/>
</svg>
